<?xml version="1.0" encoding="UTF-8"?>
<svg width="500" height="500" version="1.1" viewBox="0 0 500.00001 500.00001" xmlns="http://www.w3.org/2000/svg">
 <rect width="500" height="500" fill-opacity="0"/>
 <path d="m249.97 363.42c-33.838 0-64.468 3.0064-86.711 7.8887-11.121 2.4412-20.142 5.3438-26.469 8.627-3.1632 1.6416-5.659 3.3756-7.4082 5.252s-2.7637 3.9448-2.7637 6.1172 1.0145 4.2408 2.7637 6.1172 4.245 3.6123 7.4082 5.2539c6.3265 3.2832 15.347 6.1858 26.469 8.627 22.243 4.8823 52.873 7.8867 86.711 7.8867s64.47-3.0044 86.713-7.8867c7.0938-1.5571 13.322-3.3032 18.553-5.2148a8.5942 8.5942 0 0 1 -0.16797 -1.6504 8.5942 8.5942 0 0 1 0.02539 -0.51758c-5.2237 1.9488-11.56 3.7566-18.854 5.3574-22.027 4.835-52.554 7.8398-86.27 7.8398s-64.241-3.0049-86.268-7.8398c-11.014-2.4175-19.906-5.3004-25.959-8.4414-3.0263-1.5705-5.3362-3.207-6.8457-4.8262s-2.207-3.1704-2.207-4.7051c0-1.5346 0.69753-3.0839 2.207-4.7031s3.8194-3.2576 6.8457-4.8281c6.0526-3.141 14.945-6.0239 25.959-8.4414 22.027-4.835 52.552-7.8398 86.268-7.8398 33.715 0 64.242 3.0049 86.27 7.8398 11.014 2.4175 19.904 5.3004 25.957 8.4414 3.0263 1.5705 5.3382 3.2089 6.8477 4.8281s2.207 3.1685 2.207 4.7031-0.69754 3.0859-2.207 4.7051c-0.31411 0.33694-0.67189 0.67404-1.0547 1.0117a8.5942 8.5942 0 0 1 1.6777 1.2793c0.31367-0.28991 0.61594-0.58216 0.89258-0.87891 1.7492-1.8764 2.7637-3.9448 2.7637-6.1172s-1.0144-4.2408-2.7637-6.1172-4.245-3.6104-7.4082-5.252c-6.3265-3.2832-15.347-6.1858-26.469-8.627-22.243-4.8823-52.875-7.8887-86.713-7.8887z" color="#000000" color-rendering="auto" fill="#909090" image-rendering="auto" shape-rendering="auto" solid-color="#000000" style="block-progression:tb;isolation:auto;mix-blend-mode:normal;text-decoration-color:#000000;text-decoration-line:none;text-decoration-style:solid;text-indent:0;text-transform:none;white-space:normal"/>
 <path d="m366.98 399.06c0.38605 0.39978-0.65402 1.4944-0.65402 1.4944l-1.7897 1.9837-1.7898 1.9836-1.7897 1.9836-1.7898 1.9836-1.7898 1.9836-1.7897 1.9836s-1.0185 1.0032-1.7558 1.0611c-0.73726 0.0579-1.6877-0.79049-1.6877-0.79049-1.6538-1.7131-1.7256-4.1075-3.3794-5.8206-1.6537-1.7131-4.8894-2.7448-6.5432-4.4578 0 0-0.74609-0.94903-0.38158-1.353 0.36451-0.40404 2.1714-0.63059 2.1714-0.63059l3.4435-0.27058 3.4436-0.27056 3.4435-0.27057 3.4436-0.27059 3.4435-0.27057 3.4436-0.27056s1.9218-0.18122 2.3077 0.21872z" fill="#909090"/>
 <path d="m249.92 82.025c-144.05 0-142.01 37.101-142.01 37.101l19.783 158.88 122.33 112.49 122.28-112.49 19.793-159.32s1.8734-36.663-142.18-36.663z" fill="#fff"/>
 <path d="m249.92 117.98 15.523 28.929 32.31 5.824-22.716 23.703 4.4454 32.529-29.563-14.28-29.563 14.28 4.4454-32.529-22.716-23.703 32.31-5.824z" fill="#787878"/>
 <path transform="matrix(.90412 .24226 -.24226 .90412 65.947 -43.898)" d="m343.46 131.28 12.776 23.81 26.592 4.7934-18.696 19.509 3.6587 26.772-24.331-11.753-24.331 11.753 3.6587-26.772-18.696-19.509 26.592-4.7934z" fill="#787878"/>
 <path transform="matrix(-.90412 .24226 .24226 .90412 434.05 -50.088)" d="m343.46 131.28 12.776 23.81 26.592 4.7934-18.696 19.509 3.6587 26.772-24.331-11.753-24.331 11.753 3.6587-26.772-18.696-19.509 26.592-4.7934z" fill="#787878"/>
 <path d="m249.92 82.025v308.37s0.11797 0.0697 0.12506 0.0739l122.26-112.47 19.793-159.32s1.8734-36.663-142.18-36.663z" fill="#909090" fill-opacity=".063107" fill-rule="evenodd"/>
 <path d="m249.92 82.025c-144.05 0-142.01 37.101-142.01 37.101l19.783 158.88 122.33 112.49 122.28-112.49 19.793-159.32s1.8734-36.663-142.18-36.663z" fill="none" stroke="#909090" stroke-linecap="round" stroke-width="2.4255"/>
</svg>
